<svg width="587" height="596" viewBox="0 0 587 596" fill="none" xmlns="http://www.w3.org/2000/svg">
<path d="M167.721 564.55C-45.2895 445.264 6.78489 350.208 13.1768 282.044C13.1768 241.146 113.048 49.7743 150.679 21.3728C174.111 3.62189 249.516 -16.9692 363.69 42.6739C624.415 151.735 601.552 336.629 557.53 415.443C525.578 503.487 402.884 656.571 167.721 564.55Z" fill="#00C1FE" stroke="#00C1FE" stroke-width="4.26022" stroke-linecap="round" stroke-linejoin="round"/>
<path d="M140.534 287.575C132.374 287.575 124.422 286.054 116.677 283.011C108.932 279.969 102.916 276.303 98.6285 272.016L114.188 247.951C116.677 250.994 120.204 253.553 124.768 255.627C129.47 257.563 133.965 258.532 138.252 258.532C141.433 258.532 144.407 257.84 147.173 256.457C149.939 255.074 152.152 252.999 153.811 250.233C155.471 247.467 156.301 244.079 156.301 240.068C156.301 235.643 155.402 231.77 153.604 228.451C151.944 225.132 149.455 222.573 146.135 220.775C142.954 218.839 139.151 217.871 134.725 217.871C130.438 217.871 126.358 218.493 122.486 219.738C118.613 220.844 114.049 222.78 108.794 225.546H108.586V148.374H177.254V177.417H134.518V199.615L130.991 193.391C132.928 193.114 134.795 192.907 136.593 192.769C138.39 192.63 140.188 192.561 141.986 192.561C151.668 192.561 159.827 194.705 166.466 198.992C173.243 203.28 178.429 208.95 182.025 216.004C185.621 223.057 187.419 230.733 187.419 239.031C187.419 248.159 185.344 256.388 181.195 263.718C177.046 271.048 171.376 276.857 164.184 281.144C157.131 285.431 149.247 287.575 140.534 287.575ZM262.845 286.123C254.961 286.123 247.493 284.74 240.439 281.974C233.524 279.208 227.37 274.99 221.976 269.319C216.721 263.51 212.572 256.25 209.529 247.537C206.486 238.685 204.965 228.312 204.965 216.418C204.965 203.141 206.417 192.077 209.321 183.226C212.226 174.236 216.237 167.044 221.354 161.651C226.609 156.257 232.764 152.453 239.817 150.241C246.871 147.889 254.546 146.714 262.845 146.714C270.728 146.714 278.127 148.097 285.042 150.863C292.096 153.629 298.25 157.916 303.506 163.725C308.899 169.396 313.118 176.656 316.16 185.508C319.203 194.221 320.724 204.524 320.724 216.418C320.724 228.727 319.203 239.308 316.16 248.159C313.118 257.01 308.899 264.271 303.506 269.942C298.112 275.474 291.957 279.554 285.042 282.181C278.127 284.809 270.728 286.123 262.845 286.123ZM262.637 257.287C269.552 257.287 274.946 255.489 278.818 251.893C282.691 248.159 285.388 243.111 286.909 236.749C288.569 230.387 289.399 223.334 289.399 215.589C289.399 207.982 288.569 201.205 286.909 195.258C285.388 189.311 282.691 184.609 278.818 181.151C274.946 177.555 269.552 175.757 262.637 175.757C255.86 175.757 250.536 177.555 246.663 181.151C242.791 184.747 240.094 189.588 238.572 195.673C237.051 201.758 236.29 208.604 236.29 216.211C236.29 223.818 237.051 230.733 238.572 236.956C240.094 243.18 242.791 248.159 246.663 251.893C250.536 255.489 255.86 257.287 262.637 257.287ZM368.631 224.924C361.025 224.924 354.732 223.195 349.753 219.738C344.774 216.28 341.109 211.578 338.758 205.631C336.407 199.684 335.231 192.976 335.231 185.508C335.231 178.039 336.407 171.401 338.758 165.592C341.109 159.645 344.774 154.943 349.753 151.485C354.732 148.028 361.025 146.299 368.631 146.299C376.238 146.299 382.462 148.028 387.302 151.485C392.281 154.943 395.946 159.645 398.297 165.592C400.787 171.401 402.032 178.039 402.032 185.508C402.032 192.976 400.787 199.684 398.297 205.631C395.946 211.578 392.281 216.28 387.302 219.738C382.462 223.195 376.238 224.924 368.631 224.924ZM360.541 185.508C360.541 191.178 361.094 195.811 362.2 199.407C363.307 202.865 365.45 204.594 368.631 204.594C371.812 204.594 373.887 202.865 374.855 199.407C375.961 195.811 376.515 191.178 376.515 185.508C376.515 179.008 375.961 174.305 374.855 171.401C373.887 168.358 371.812 166.837 368.631 166.837C365.45 166.837 363.307 168.358 362.2 171.401C361.094 174.305 360.541 179.008 360.541 185.508ZM455.347 291.724C447.741 291.724 441.448 289.995 436.469 286.538C431.49 283.08 427.825 278.378 425.474 272.431C423.123 266.484 421.947 259.776 421.947 252.308C421.947 244.84 423.123 238.201 425.474 232.392C427.825 226.445 431.49 221.743 436.469 218.286C441.448 214.828 447.741 213.099 455.347 213.099C462.954 213.099 469.177 214.828 474.018 218.286C478.997 221.743 482.662 226.445 485.013 232.392C487.503 238.201 488.747 244.84 488.747 252.308C488.747 259.776 487.503 266.484 485.013 272.431C482.662 278.378 478.997 283.08 474.018 286.538C469.177 289.995 462.954 291.724 455.347 291.724ZM447.257 252.308C447.257 257.978 447.81 262.612 448.916 266.207C450.023 269.665 452.166 271.394 455.347 271.394C458.528 271.394 460.603 269.665 461.571 266.207C462.677 262.612 463.23 257.978 463.23 252.308C463.23 245.808 462.677 241.105 461.571 238.201C460.603 235.158 458.528 233.637 455.347 233.637C452.166 233.637 450.023 235.158 448.916 238.201C447.81 241.105 447.257 245.808 447.257 252.308ZM478.997 146.299L378.174 286.33L349.753 285.916L450.161 146.299H478.997ZM165.677 461.446C165.677 452.18 167.82 443.881 172.108 436.551C176.533 429.221 182.688 423.482 190.571 419.333C198.454 415.045 207.513 412.902 217.748 412.902C228.12 412.902 237.11 415.045 244.717 419.333C252.323 423.482 258.132 429.221 262.143 436.551C266.292 443.881 268.366 452.18 268.366 461.446C268.366 470.712 266.292 479.079 262.143 486.548C258.132 493.878 252.323 499.687 244.717 503.974C237.11 508.261 227.982 510.405 217.333 510.405C207.375 510.405 198.454 508.469 190.571 504.596C182.826 500.724 176.741 495.123 172.315 487.792C167.889 480.462 165.677 471.68 165.677 461.446ZM194.928 461.653C194.928 466.356 195.896 470.643 197.832 474.515C199.768 478.25 202.396 481.223 205.715 483.436C209.035 485.649 212.769 486.755 216.918 486.755C221.482 486.755 225.423 485.649 228.743 483.436C232.062 481.223 234.621 478.25 236.418 474.515C238.216 470.643 239.115 466.356 239.115 461.653C239.115 456.813 238.216 452.525 236.418 448.791C234.621 445.057 232.062 442.083 228.743 439.871C225.423 437.658 221.482 436.551 216.918 436.551C212.769 436.551 209.035 437.658 205.715 439.871C202.396 442.083 199.768 445.057 197.832 448.791C195.896 452.525 194.928 456.813 194.928 461.653ZM299.959 507.916V442.568H284.608V416.843H299.959V385.31C299.959 373.416 303.348 363.735 310.125 356.267C317.04 348.66 326.997 344.857 339.998 344.857C343.87 344.857 348.158 345.479 352.86 346.724C357.701 347.83 361.919 349.697 365.515 352.325L353.275 373.278C351.892 371.48 350.232 370.304 348.296 369.751C346.498 369.06 344.769 368.714 343.11 368.714C338.961 368.714 335.572 370.097 332.945 372.863C330.317 375.629 329.003 380.055 329.003 386.14V416.843H356.387V442.568H329.003V507.916H299.959ZM366.967 507.916V442.568H351.615V416.843H366.967V385.31C366.967 373.416 370.355 363.735 377.132 356.267C384.047 348.66 394.005 344.857 407.006 344.857C410.878 344.857 415.165 345.479 419.868 346.724C424.708 347.83 428.927 349.697 432.522 352.325L420.283 373.278C418.9 371.48 417.24 370.304 415.304 369.751C413.506 369.06 411.777 368.714 410.117 368.714C405.968 368.714 402.58 370.097 399.952 372.863C397.324 375.629 396.011 380.055 396.011 386.14V416.843H423.394V442.568H396.011V507.916H366.967Z" fill="white"/>
</svg>
