<svg width="2874" height="2047" viewBox="0 0 2874 2047" fill="none" xmlns="http://www.w3.org/2000/svg">
<path fill-rule="evenodd" clip-rule="evenodd" d="M551.999 504.268C551.999 391.277 640.33 299.679 749.292 299.679H805.92L805.914 863.277C677.271 863.277 572.986 971.419 572.986 1104.82C572.986 1238.22 677.271 1346.36 805.914 1346.36L805.92 1909.96H749.292C640.33 1909.96 551.999 1818.36 551.999 1705.37C551.999 1688.99 541.109 1667.15 515.083 1652.49C507.074 1647.98 499.175 1643.29 491.392 1638.42C465.436 1622.2 441.069 1623.24 426.763 1631.73C331.744 1688.1 210.661 1654.46 155.554 1556.37L100.859 1459.02C45.6468 1360.74 78.2305 1234.63 173.431 1178.15C187.233 1169.96 200.211 1149.13 199.578 1118.14C199.488 1113.71 199.443 1109.27 199.443 1104.82C199.443 1100.37 199.488 1095.93 199.578 1091.5C200.211 1060.51 187.233 1039.68 173.43 1031.49C78.2279 975.004 45.6441 848.898 100.857 750.619L155.55 653.266C210.658 555.176 331.741 521.534 426.76 577.911C441.067 586.4 465.435 587.441 491.392 571.215C499.175 566.349 507.074 561.659 515.083 557.148C541.109 542.491 551.999 520.643 551.999 504.268Z" fill="black"/>
<path d="M862.547 299.679H805.92L805.914 863.277C830.103 863.277 853.431 867.101 875.367 874.197V300.104C871.128 299.822 866.854 299.679 862.547 299.679Z" fill="black"/>
<path d="M805.92 1909.96H862.547C866.854 1909.96 871.128 1909.82 875.367 1909.53V1335.44C853.431 1342.54 830.103 1346.36 805.914 1346.36L805.92 1909.96Z" fill="black"/>
<path d="M2295.46 2004.69V1717.33H2456.24L2613.61 1720.75V2001.27L2456.24 2004.69H2295.46ZM2288.62 725.252C2286.34 725.252 2191.69 864.371 2004.68 1142.61C1817.66 1418.57 1721.88 1556.55 1717.32 1556.55C1710.47 1556.55 1614.69 1418.57 1429.95 1142.61L1152.86 728.673L1149.43 1368.39V2004.69H988.649L831.284 2001.27V1104.98C831.284 505.17 833.565 202.984 838.126 198.423C840.407 193.861 898.563 191.581 1012.6 191.581C1101.54 191.581 1150.57 192.721 1159.7 195.002C1171.1 199.563 1248.64 312.455 1392.32 533.678C1608.98 868.933 1720.74 1036.56 1727.58 1036.56L1731 1033.14L1734.42 1026.3C1741.26 1019.46 1830.21 882.617 2001.26 615.781C2174.59 346.665 2264.67 209.826 2271.51 205.265C2280.64 196.142 2338.79 191.581 2445.98 191.581C2548.61 191.581 2602.21 196.142 2606.77 205.265C2611.33 214.387 2613.61 384.295 2613.61 714.989C2611.33 897.441 2610.19 1067.35 2610.19 1224.71C2610.19 1233.84 2557.73 1238.4 2452.82 1238.4H2295.46V981.825C2295.46 810.776 2293.18 725.252 2288.62 725.252Z" fill="#A424F2"/>
</svg>
